<svg width="24" height="25" viewBox="0 0 24 25" fill="none" xmlns="http://www.w3.org/2000/svg">
<path d="M21.98 12.01C21.64 6.20999 16.37 1.74 10.3 2.74C6.12004 3.43 2.77005 6.81998 2.12005 11C1.74005 13.42 2.24007 15.71 3.33007 17.6L2.44006 20.91C2.24006 21.66 2.93004 22.34 3.67004 22.13L6.93005 21.23C8.41005 22.1 10.14 22.6 11.99 22.6C17.63 22.6 22.31 17.63 21.98 12.01ZM16.8801 16.32C16.7901 16.5 16.68 16.67 16.54 16.83C16.29 17.1 16.02 17.3 15.72 17.42C15.42 17.55 15.09 17.61 14.74 17.61C14.23 17.61 13.68 17.49 13.11 17.24C12.53 16.99 11.9601 16.66 11.3901 16.25C10.8101 15.83 10.2701 15.36 9.75005 14.85C9.23005 14.33 8.77003 13.78 8.35003 13.21C7.94003 12.64 7.61005 12.07 7.37005 11.5C7.13005 10.93 7.01006 10.38 7.01006 9.85999C7.01006 9.51999 7.07006 9.18999 7.19006 8.88999C7.31006 8.57999 7.50007 8.3 7.77007 8.05C8.09007 7.73 8.44005 7.57999 8.81005 7.57999C8.95005 7.57999 9.09002 7.60999 9.22002 7.66999C9.35002 7.72999 9.47005 7.81999 9.56005 7.94999L10.72 9.58997C10.81 9.71997 10.88 9.82998 10.92 9.93998C10.97 10.05 10.99 10.15 10.99 10.25C10.99 10.37 10.9501 10.49 10.8801 10.61C10.8101 10.73 10.72 10.85 10.6 10.97L10.22 11.37C10.16 11.43 10.1401 11.49 10.1401 11.57C10.1401 11.61 10.15 11.65 10.16 11.69C10.18 11.73 10.1901 11.76 10.2001 11.79C10.2901 11.96 10.45 12.17 10.67 12.43C10.9 12.69 11.1401 12.96 11.4001 13.22C11.6701 13.49 11.9301 13.73 12.2001 13.96C12.4601 14.18 12.68 14.33 12.85 14.42C12.88 14.43 12.9101 14.45 12.9401 14.46C12.9801 14.48 13.0201 14.48 13.0701 14.48C13.1601 14.48 13.2201 14.45 13.2801 14.39L13.66 14.01C13.79 13.88 13.9101 13.79 14.0201 13.73C14.1401 13.66 14.2501 13.62 14.3801 13.62C14.4801 13.62 14.5801 13.64 14.6901 13.69C14.8001 13.74 14.92 13.8 15.04 13.89L16.7001 15.07C16.8301 15.16 16.92 15.27 16.98 15.39C17.03 15.52 17.0601 15.64 17.0601 15.78C17.0001 15.95 16.9601 16.14 16.8801 16.32Z" fill="white"/>
</svg>
