<svg width="27" height="24" viewBox="0 0 27 24" fill="none" xmlns="http://www.w3.org/2000/svg">
<path d="M13.092 1.5C10.7342 1.50258 8.47369 2.3726 6.80643 3.91922C5.13917 5.46584 4.20128 7.56276 4.1985 9.75C4.19567 11.5374 4.82507 13.2763 5.99014 14.7C5.99014 14.7 6.23269 14.9963 6.27231 15.039L13.092 22.5L19.915 15.0353C19.9506 14.9955 20.1939 14.7 20.1939 14.7L20.1947 14.6978C21.3592 13.2747 21.9883 11.5366 21.9856 9.75C21.9828 7.56276 21.0449 5.46584 19.3776 3.91922C17.7104 2.3726 15.4499 1.50258 13.092 1.5V1.5ZM13.092 12.75C12.4524 12.75 11.8271 12.5741 11.2953 12.2444C10.7635 11.9148 10.349 11.4462 10.1042 10.8981C9.85942 10.3499 9.79538 9.74667 9.92016 9.16473C10.0449 8.58279 10.353 8.04824 10.8052 7.62868C11.2575 7.20912 11.8338 6.9234 12.4611 6.80764C13.0885 6.69189 13.7387 6.7513 14.3296 6.97836C14.9206 7.20542 15.4257 7.58994 15.781 8.08329C16.1364 8.57664 16.3261 9.15666 16.3261 9.75C16.325 10.5453 15.9839 11.3078 15.3776 11.8702C14.7714 12.4326 13.9494 12.749 13.092 12.75V12.75Z" fill="#42A7C3"/>
</svg>
