<svg width="42" height="36" viewBox="0 0 42 36" fill="none" xmlns="http://www.w3.org/2000/svg">
<path fill-rule="evenodd" clip-rule="evenodd" d="M28.1572 0.5C29.2814 0.5 30.1929 1.42283 30.1929 2.56121V9.07029H36.7236C36.6938 13.1505 36.7047 18.4222 36.7147 23.2125C36.7189 25.2452 36.723 27.1914 36.7236 28.923C38.7825 30.1357 40.6822 31.7675 42 34.3299L41.0341 33.5961C38.7889 31.8908 35.1337 30.423 31.8145 29.8936C29.8939 29.5874 26.1886 29.8825 24.227 30.498L23.7966 30.633L24.3857 30.9795C25.2189 31.4696 25.9985 32.2461 26.2306 32.8172C26.4505 33.3582 26.5103 33.3725 27.7472 33.1793C29.1857 32.9548 33.9731 33.063 33.4062 33.3071C33.2934 33.3557 32.6616 33.4333 32.002 33.4796C29.8292 33.6321 27.0674 34.1453 25.4811 34.6914C25.3102 34.7502 25.1737 34.5837 24.9178 34.0043C24.1169 32.1912 22.2598 30.6182 20.1391 29.9571L19.561 29.7768L20.2355 29.8457C20.9479 29.9183 22.368 30.1842 22.8384 30.3328C23.0786 30.4088 23.1026 30.3801 23.0083 30.129C22.4981 28.7695 21.0224 27.214 19.4437 26.3716C18.0327 25.6187 16.7953 25.3538 15.0185 25.4246C13.6444 25.4793 11.9914 25.8011 11.9914 26.014C11.9914 26.0666 12.089 26.4553 12.2081 26.8779C12.591 28.2344 12.7668 29.6762 12.6133 30.2019C12.527 30.4976 12.4652 30.5803 12.4561 30.4126C12.4271 29.8816 11.6795 28.3683 10.9765 27.418C8.92324 24.6424 5.66458 23.2038 1.43027 23.2038H-7.66345e-07C0.00256598 19.3605 0.00595016 12.9136 0.00359595 9.07029H6.35003V2.56121C6.35003 1.42283 7.26145 0.5 8.38575 0.5H28.1572ZM9.13575 9.07029V3.3206H27.4072V9.07029H9.13575ZM17.9469 13.1674C17.6392 13.3372 17.3875 13.5303 17.3875 13.5967C17.3875 13.663 17.8291 14.0924 18.3689 14.5509C19.7437 15.7187 21.4592 17.4793 21.4051 17.6671C21.3801 17.7537 20.5901 18.2731 19.6497 18.8215L17.9397 19.8185L16.4655 19.666C15.0981 19.5245 14.9693 19.5295 14.6905 19.7344C14.2459 20.0611 14.3123 20.2087 15.1318 20.7161C15.7813 21.1184 15.8795 21.2376 15.9187 21.6725C15.9581 22.1098 16.0117 22.1738 16.3653 22.207C16.715 22.2398 16.7876 22.3231 16.9273 22.8519C17.0155 23.1859 17.0877 23.5677 17.0877 23.7005C17.0877 24.0202 17.4439 24.1167 17.9703 23.9396C18.3323 23.8179 18.464 23.6338 18.8295 22.7391L19.2612 21.6825L21.2098 20.8661C22.2815 20.417 23.1999 20.0473 23.2507 20.0445C23.4127 20.0355 24.2953 21.7518 24.9692 23.3863C25.3667 24.3504 25.707 24.9833 25.8403 25.0061C25.9603 25.0268 26.3361 24.9287 26.6753 24.7883L27.2918 24.5328L27.1905 23.6251C27.0923 22.745 27.1011 22.7099 27.4846 22.465C28.0005 22.1356 27.9833 21.9483 27.4036 21.58L26.9273 21.2773L27.4036 20.9517C28.0128 20.5356 28.0036 20.3501 27.3572 20.0101C26.8628 19.7501 26.8343 19.698 26.8325 19.0515L26.8307 18.3679L28.5704 17.5342C30.4223 16.6467 31.3121 15.971 31.8067 15.0766C31.965 14.7902 32.0528 14.4492 32.0017 14.3186C31.8673 13.9746 30.949 13.8047 30.0077 13.9496C28.9345 14.1149 28.3767 14.3248 26.7793 15.1651C26.0093 15.57 25.3039 15.9014 25.2118 15.9014C25.1197 15.9014 24.7447 15.7545 24.3784 15.5749C23.8314 15.3066 23.6966 15.1677 23.6236 14.7971C23.5232 14.287 23.2563 14.1502 22.6976 14.3227C22.1352 14.4963 22.0342 14.4715 22.0342 14.1599C22.0342 14.0054 21.9442 13.7791 21.8344 13.657C21.658 13.4611 21.5698 13.4523 21.0843 13.5824C20.5666 13.7212 20.4838 13.7045 19.6729 13.2975C19.1991 13.0598 18.7428 12.8639 18.6589 12.8621C18.575 12.8602 18.2546 12.9976 17.9469 13.1674Z" fill="#48B7D6" fill-opacity="0.84"/>
<path d="M8.63321 30.9902C12.1233 31.3062 14.5754 32.6608 15.6375 34.8596C16.0338 35.6801 15.946 35.6991 15.0267 34.9915C12.7227 33.2183 10.1239 32.1072 6.52032 31.3549C3.36597 30.6965 7.70444 30.9061 8.63321 30.9902Z" fill="#48B7D6" fill-opacity="0.84"/>
</svg>
