<svg width="42" height="36" viewBox="0 0 42 36" fill="none" xmlns="http://www.w3.org/2000/svg">
<path fill-rule="evenodd" clip-rule="evenodd" d="M28.1572 0.899994C29.2814 0.899994 30.1929 1.82283 30.1929 2.9612V9.47028H36.7236C36.6938 13.5505 36.7047 18.8222 36.7147 23.6125C36.7189 25.6452 36.723 27.5914 36.7236 29.323C38.7825 30.5357 40.6822 32.1675 42 34.7299L41.0341 33.9961C38.7889 32.2908 35.1337 30.823 31.8145 30.2936C29.8939 29.9874 26.1886 30.2825 24.227 30.898L23.7966 31.033L24.3857 31.3795C25.2189 31.8696 25.9985 32.6461 26.2306 33.2172C26.4505 33.7582 26.5103 33.7724 27.7472 33.5793C29.1857 33.3548 33.9731 33.4629 33.4062 33.7071C33.2934 33.7556 32.6616 33.8333 32.002 33.8796C29.8292 34.032 27.0674 34.5453 25.4811 35.0914C25.3102 35.1502 25.1737 34.9837 24.9178 34.4043C24.1169 32.5912 22.2598 31.0182 20.1391 30.3571L19.561 30.1768L20.2355 30.2456C20.9479 30.3183 22.368 30.5842 22.8384 30.7328C23.0786 30.8088 23.1026 30.7801 23.0083 30.529C22.4981 29.1695 21.0224 27.614 19.4437 26.7716C18.0327 26.0187 16.7953 25.7538 15.0185 25.8246C13.6444 25.8793 11.9914 26.2011 11.9914 26.414C11.9914 26.4666 12.089 26.8553 12.2081 27.2778C12.591 28.6344 12.7668 30.0762 12.6133 30.6019C12.527 30.8976 12.4652 30.9803 12.4561 30.8126C12.4271 30.2816 11.6795 28.7683 10.9765 27.818C8.92324 25.0423 5.66458 23.6038 1.43027 23.6038H-7.66345e-07C0.00256598 19.7605 0.00595016 13.3136 0.00359595 9.47028H6.35003V2.9612C6.35003 1.82283 7.26145 0.899994 8.38575 0.899994H28.1572ZM9.13575 9.47028V3.7206H27.4072V9.47028H9.13575ZM17.9469 13.5674C17.6392 13.7372 17.3875 13.9303 17.3875 13.9967C17.3875 14.063 17.8291 14.4924 18.3689 14.9508C19.7437 16.1187 21.4592 17.8793 21.4051 18.0671C21.3801 18.1537 20.5901 18.6731 19.6497 19.2215L17.9397 20.2185L16.4655 20.066C15.0981 19.9245 14.9693 19.9295 14.6905 20.1344C14.2459 20.4611 14.3123 20.6087 15.1318 21.1161C15.7813 21.5183 15.8795 21.6376 15.9187 22.0725C15.9581 22.5098 16.0117 22.5738 16.3653 22.607C16.715 22.6397 16.7876 22.7231 16.9273 23.2519C17.0155 23.5859 17.0877 23.9677 17.0877 24.1005C17.0877 24.4202 17.4439 24.5167 17.9703 24.3396C18.3323 24.2179 18.464 24.0338 18.8295 23.1391L19.2612 22.0825L21.2098 21.266C22.2815 20.817 23.1999 20.4473 23.2507 20.4445C23.4127 20.4355 24.2953 22.1518 24.9692 23.7863C25.3667 24.7504 25.707 25.3832 25.8403 25.4061C25.9603 25.4268 26.3361 25.3287 26.6753 25.1883L27.2918 24.9328L27.1905 24.0251C27.0923 23.1449 27.1011 23.1099 27.4846 22.865C28.0005 22.5356 27.9833 22.3483 27.4036 21.98L26.9273 21.6773L27.4036 21.3517C28.0128 20.9356 28.0036 20.7501 27.3572 20.4101C26.8628 20.1501 26.8343 20.098 26.8325 19.4515L26.8307 18.7679L28.5704 17.9342C30.4223 17.0467 31.3121 16.371 31.8067 15.4766C31.965 15.1902 32.0528 14.8492 32.0017 14.7186C31.8673 14.3746 30.949 14.2047 30.0077 14.3496C28.9345 14.5149 28.3767 14.7248 26.7793 15.5651C26.0093 15.97 25.3039 16.3014 25.2118 16.3014C25.1197 16.3014 24.7447 16.1545 24.3784 15.9749C23.8314 15.7066 23.6966 15.5676 23.6236 15.1971C23.5232 14.687 23.2563 14.5502 22.6976 14.7226C22.1352 14.8963 22.0342 14.8715 22.0342 14.5599C22.0342 14.4054 21.9442 14.1791 21.8344 14.057C21.658 13.8611 21.5698 13.8523 21.0843 13.9824C20.5666 14.1212 20.4838 14.1045 19.6729 13.6975C19.1991 13.4598 18.7428 13.2639 18.6589 13.262C18.575 13.2602 18.2546 13.3976 17.9469 13.5674Z" fill="white"/>
<path d="M8.63321 31.3902C12.1233 31.7062 14.5754 33.0608 15.6375 35.2596C16.0338 36.0801 15.946 36.0991 15.0267 35.3915C12.7227 33.6182 10.1239 32.5072 6.52032 31.7549C3.36597 31.0965 7.70444 31.3061 8.63321 31.3902Z" fill="white"/>
</svg>
