<svg width="24" height="25" viewBox="0 0 24 25" fill="none" xmlns="http://www.w3.org/2000/svg">
<path d="M20.1066 9.23421C20.0826 9.01074 20.0546 8.83166 20.0316 8.70403L21.9161 5.87733C22.0345 5.6996 22.027 5.46623 21.8974 5.29648C21.7677 5.12673 21.5446 5.05809 21.3419 5.12563L18.7212 5.99919C18.5827 5.79263 18.3773 5.52017 18.1036 5.24642C17.5491 4.69192 16.6794 4.09998 15.5 4.09998C14.2775 4.09998 13.3727 4.44216 12.7266 5.00392C12.0872 5.55992 11.75 6.28866 11.5775 6.97871C11.4052 7.66786 11.3898 8.34608 11.4147 8.84369C11.422 8.98881 11.4327 9.12015 11.4444 9.23381C10.1893 9.50072 8.87591 9.09185 7.58934 8.32833C6.17064 7.48638 4.87015 6.26298 3.85358 5.24642C3.71259 5.10543 3.50131 5.06169 3.31593 5.1351C3.13054 5.20852 3.0065 5.38506 3.00027 5.58436C2.87287 9.66118 3.71338 14.5957 7.51119 17.098C5.9138 17.9622 4.34766 18.3651 2.43801 18.6038C2.21938 18.6312 2.04441 18.7984 2.00721 19.0156C1.97001 19.2327 2.07935 19.4487 2.27642 19.5472C7.43512 22.1265 14.1199 21.9401 17.9 16.9C19.467 14.8107 19.9921 12.7159 20.1233 11.1415C20.1888 10.3552 20.1563 9.69806 20.1066 9.23421Z" fill="white"/>
</svg>
