<svg width="24" height="25" viewBox="0 0 24 25" fill="none" xmlns="http://www.w3.org/2000/svg">
<path d="M22 16.79C22 20.43 19.83 22.6 16.19 22.6H15C14.45 22.6 14 22.15 14 21.6V15.83C14 15.56 14.22 15.33 14.49 15.33L16.25 15.3C16.39 15.29 16.51 15.19 16.54 15.05L16.89 13.14C16.92 12.96 16.78 12.79 16.59 12.79L14.46 12.82C14.18 12.82 13.96 12.6 13.95 12.33L13.91 9.87997C13.91 9.71997 14.04 9.57999 14.21 9.57999L16.61 9.53998C16.78 9.53998 16.91 9.40999 16.91 9.23999L16.87 6.83997C16.87 6.66997 16.74 6.53998 16.57 6.53998L13.87 6.57999C12.21 6.60999 10.89 7.96997 10.92 9.62997L10.97 12.38C10.98 12.66 10.76 12.88 10.48 12.89L9.28 12.91C9.11 12.91 8.98001 13.04 8.98001 13.21L9.01001 15.11C9.01001 15.28 9.14 15.41 9.31 15.41L10.51 15.39C10.79 15.39 11.01 15.61 11.02 15.88L11.11 21.58C11.12 22.14 10.67 22.6 10.11 22.6H7.81C4.17 22.6 2 20.43 2 16.78V8.40997C2 4.76997 4.17 2.59998 7.81 2.59998H16.19C19.83 2.59998 22 4.76997 22 8.40997V16.79V16.79Z" fill="white"/>
</svg>
