<svg width="24" height="25" viewBox="0 0 24 25" fill="none" xmlns="http://www.w3.org/2000/svg">
<path d="M16.19 2.59998H7.81C4.17 2.59998 2 4.76998 2 8.40998V16.78C2 20.43 4.17 22.6 7.81 22.6H16.18C19.82 22.6 21.99 20.43 21.99 16.79V8.40998C22 4.76998 19.83 2.59998 16.19 2.59998ZM12 16.48C9.86 16.48 8.12 14.74 8.12 12.6C8.12 10.46 9.86 8.71998 12 8.71998C14.14 8.71998 15.88 10.46 15.88 12.6C15.88 14.74 14.14 16.48 12 16.48ZM17.92 7.47998C17.87 7.59998 17.8 7.70998 17.71 7.80998C17.61 7.89998 17.5 7.96998 17.38 8.01998C17.26 8.06998 17.13 8.09998 17 8.09998C16.73 8.09998 16.48 7.99998 16.29 7.80998C16.2 7.70998 16.13 7.59998 16.08 7.47998C16.03 7.35998 16 7.22998 16 7.09998C16 6.96998 16.03 6.83998 16.08 6.71998C16.13 6.58998 16.2 6.48998 16.29 6.38998C16.52 6.15998 16.87 6.04998 17.19 6.11998C17.26 6.12998 17.32 6.14998 17.38 6.17998C17.44 6.19998 17.5 6.22998 17.56 6.26998C17.61 6.29998 17.66 6.34998 17.71 6.38998C17.8 6.48998 17.87 6.58998 17.92 6.71998C17.97 6.83998 18 6.96998 18 7.09998C18 7.22998 17.97 7.35998 17.92 7.47998Z" fill="white"/>
</svg>
