<svg width="24" height="25" viewBox="0 0 24 25" fill="none" xmlns="http://www.w3.org/2000/svg">
<path d="M21.98 12.01C21.64 6.20999 16.37 1.74 10.3 2.74C6.11998 3.43 2.76999 6.81998 2.11999 11C1.73999 13.42 2.24001 15.71 3.33001 17.6L2.43999 20.91C2.23999 21.66 2.92998 22.34 3.66998 22.13L6.92999 21.23C8.40999 22.1 10.14 22.6 11.99 22.6C17.63 22.6 22.31 17.63 21.98 12.01ZM16.88 16.32C16.79 16.5 16.68 16.67 16.54 16.83C16.29 17.1 16.02 17.3 15.72 17.42C15.42 17.55 15.09 17.61 14.74 17.61C14.23 17.61 13.68 17.49 13.11 17.24C12.53 16.99 11.96 16.66 11.39 16.25C10.81 15.83 10.27 15.36 9.74999 14.85C9.22999 14.33 8.76997 13.78 8.34997 13.21C7.93997 12.64 7.60999 12.07 7.36999 11.5C7.12999 10.93 7.01 10.38 7.01 9.85999C7.01 9.51999 7.06999 9.18999 7.18999 8.88999C7.30999 8.57999 7.50001 8.3 7.77001 8.05C8.09001 7.73 8.43999 7.57999 8.80999 7.57999C8.94999 7.57999 9.08996 7.60999 9.21996 7.66999C9.34996 7.72999 9.46999 7.81999 9.55999 7.94999L10.72 9.58997C10.81 9.71997 10.88 9.82998 10.92 9.93998C10.97 10.05 10.99 10.15 10.99 10.25C10.99 10.37 10.95 10.49 10.88 10.61C10.81 10.73 10.72 10.85 10.6 10.97L10.22 11.37C10.16 11.43 10.14 11.49 10.14 11.57C10.14 11.61 10.15 11.65 10.16 11.69C10.18 11.73 10.19 11.76 10.2 11.79C10.29 11.96 10.45 12.17 10.67 12.43C10.9 12.69 11.14 12.96 11.4 13.22C11.67 13.49 11.93 13.73 12.2 13.96C12.46 14.18 12.68 14.33 12.85 14.42C12.88 14.43 12.91 14.45 12.94 14.46C12.98 14.48 13.02 14.48 13.07 14.48C13.16 14.48 13.22 14.45 13.28 14.39L13.66 14.01C13.79 13.88 13.91 13.79 14.02 13.73C14.14 13.66 14.25 13.62 14.38 13.62C14.48 13.62 14.58 13.64 14.69 13.69C14.8 13.74 14.92 13.8 15.04 13.89L16.7 15.07C16.83 15.16 16.92 15.27 16.98 15.39C17.03 15.52 17.06 15.64 17.06 15.78C17 15.95 16.96 16.14 16.88 16.32Z" fill="white"/>
</svg>
